<?xml version="1.0" standalone="no"?>
<!DOCTYPE svg PUBLIC "-//W3C//DTD SVG 20010904//EN"
 "http://www.w3.org/TR/2001/REC-SVG-20010904/DTD/svg10.dtd">
<svg version="1.0" xmlns="http://www.w3.org/2000/svg"
 width="1024.000000pt" height="1024.000000pt" viewBox="0 0 1024.000000 1024.000000"
 preserveAspectRatio="xMidYMid meet">

<g transform="translate(0.000000,1024.000000) scale(0.100000,-0.100000)"
fill="#000000" stroke="none">
<path d="M4490 9500 l0 -100 -40 0 c-29 0 -40 -4 -40 -15 0 -12 -16 -15 -80
-15 -47 0 -80 -4 -80 -10 0 -5 -22 -10 -50 -10 -38 0 -50 -4 -50 -15 0 -10
-10 -15 -30 -15 l-30 0 0 -135 c0 -83 -4 -135 -10 -135 -5 0 -10 -22 -10 -50
l0 -50 -40 0 c-29 0 -40 -4 -40 -15 0 -13 -33 -15 -240 -15 -207 0 -240 -2
-240 -15 0 -10 -10 -15 -30 -15 l-30 0 0 -160 c0 -100 -4 -160 -10 -160 -5 0
-10 -11 -10 -25 0 -16 -6 -25 -15 -25 -9 0 -15 -9 -15 -25 0 -16 -6 -25 -15
-25 -8 0 -15 -7 -15 -15 0 -8 -4 -15 -10 -15 -5 0 -10 -7 -10 -15 0 -10 -10
-15 -30 -15 -25 0 -30 -4 -30 -25 0 -14 -4 -25 -10 -25 -5 0 -10 -7 -10 -15 0
-8 -7 -15 -15 -15 -8 0 -15 -4 -15 -10 0 -5 -7 -10 -15 -10 -12 0 -15 -17 -15
-95 0 -57 -4 -95 -10 -95 -5 0 -10 -7 -10 -15 0 -12 -14 -15 -66 -15 -64 0
-94 -13 -94 -39 0 -6 -7 -11 -15 -11 -12 0 -15 -14 -15 -65 0 -51 -3 -65 -15
-65 -8 0 -15 -7 -15 -15 0 -13 -60 -15 -480 -15 -420 0 -480 -2 -480 -15 0
-11 -12 -15 -50 -15 -27 0 -50 -4 -50 -10 0 -5 -7 -10 -15 -10 -8 0 -15 -7
-15 -15 0 -12 -16 -15 -80 -15 -64 0 -80 3 -80 15 0 9 -9 15 -25 15 -14 0 -25
5 -25 10 0 6 -18 10 -40 10 -22 0 -40 -4 -40 -10 0 -5 -13 -10 -30 -10 -20 0
-30 -5 -30 -15 0 -8 -4 -15 -10 -15 -5 0 -10 -11 -10 -25 0 -14 5 -25 10 -25
6 0 10 -13 10 -30 l0 -30 95 0 c78 0 95 3 95 15 0 9 9 15 25 15 20 0 25 5 25
25 0 21 5 25 30 25 25 0 30 -4 30 -25 0 -14 5 -25 10 -25 6 0 10 -7 10 -15 0
-8 7 -15 15 -15 12 0 15 -16 15 -80 0 -64 3 -80 15 -80 13 0 15 -106 15 -890
0 -784 -2 -890 -15 -890 -12 0 -15 -16 -15 -80 0 -79 0 -80 -25 -80 -16 0 -25
-6 -25 -15 0 -12 -14 -15 -70 -15 -56 0 -70 -3 -70 -15 0 -8 -4 -15 -10 -15
-6 0 -10 -32 -10 -76 0 -74 11 -104 39 -104 6 0 11 -7 11 -15 0 -12 14 -15 65
-15 51 0 65 -3 65 -15 0 -8 7 -15 15 -15 9 0 15 -9 15 -25 0 -16 6 -25 15 -25
12 0 15 -14 15 -65 0 -51 -3 -65 -15 -65 -12 0 -15 -13 -15 -55 0 -42 3 -55
15 -55 8 0 15 -7 15 -15 0 -8 -7 -15 -15 -15 -13 0 -15 -57 -15 -450 0 -393
-2 -450 -15 -450 -12 0 -15 -14 -15 -66 0 -76 -12 -94 -64 -94 -25 0 -36 -4
-36 -15 0 -8 -9 -15 -20 -15 -11 0 -20 7 -20 15 0 8 -4 15 -10 15 -5 0 -10 -7
-10 -15 0 -13 -29 -15 -205 -15 l-205 0 0 -175 0 -175 60 0 60 0 0 -50 c0 -38
4 -50 15 -50 21 0 19 -18 -2 -23 -10 -3 3 -5 30 -6 35 -1 47 -5 47 -16 0 -12
16 -15 86 -15 94 0 114 -10 114 -54 0 -16 6 -26 15 -26 11 0 15 -11 15 -38 0
-37 1 -38 53 -50 29 -6 101 -12 160 -12 88 0 107 -3 107 -15 0 -11 11 -15 40
-15 l40 0 0 -40 c0 -29 4 -40 15 -40 9 0 15 -9 15 -25 0 -22 4 -25 40 -25 29
0 40 -4 40 -15 0 -11 12 -15 50 -15 38 0 50 -4 50 -15 0 -10 10 -15 30 -15 17
0 30 -4 30 -10 0 -5 11 -10 25 -10 16 0 25 -6 25 -15 0 -8 7 -15 15 -15 8 0
15 -7 15 -15 0 -9 9 -15 25 -15 14 0 25 -4 25 -10 0 -5 7 -10 15 -10 9 0 15
-10 15 -26 0 -26 20 -54 39 -54 6 0 11 -7 11 -15 0 -8 7 -15 15 -15 8 0 15 -7
15 -15 0 -8 5 -15 10 -15 6 0 10 -11 10 -25 0 -24 3 -25 55 -25 42 0 55 -3 55
-15 0 -8 7 -15 15 -15 9 0 15 -9 15 -25 0 -20 5 -25 25 -25 16 0 25 -6 25 -15
0 -11 11 -15 40 -15 22 0 40 -4 40 -10 0 -5 16 -10 35 -10 24 0 35 -5 35 -15
0 -12 18 -15 98 -15 l98 0 12 -33 c7 -18 12 -48 12 -65 0 -22 5 -32 15 -32 10
0 15 -10 15 -30 0 -20 5 -30 15 -30 11 0 15 -12 15 -50 0 -27 5 -50 10 -50 6
0 10 -7 10 -15 0 -11 11 -15 40 -15 29 0 40 4 40 15 0 11 11 15 40 15 22 0 40
5 40 10 0 6 7 10 15 10 8 0 15 7 15 15 0 9 9 15 25 15 16 0 25 -6 25 -15 0 -8
7 -15 15 -15 8 0 15 -4 15 -10 0 -5 11 -10 25 -10 21 0 25 -5 25 -30 0 -16 4
-30 10 -30 5 0 12 -11 16 -25 3 -14 12 -25 20 -25 10 0 14 -14 14 -51 0 -69
13 -79 99 -79 56 0 71 -3 71 -15 0 -12 16 -15 85 -15 69 0 85 -3 85 -15 0 -10
10 -15 30 -15 28 0 30 -2 30 -40 0 -22 5 -40 10 -40 6 0 10 -18 10 -40 0 -29
4 -40 15 -40 8 0 15 -4 15 -10 0 -6 33 -10 80 -10 47 0 80 4 80 10 0 6 11 10
25 10 16 0 25 6 25 15 0 10 10 15 30 15 17 0 30 -5 30 -11 0 -14 25 -39 39
-39 6 0 11 -7 11 -15 0 -8 7 -15 15 -15 8 0 15 -7 15 -15 0 -8 5 -15 10 -15 6
0 10 -11 10 -25 0 -16 6 -25 15 -25 9 0 15 -9 15 -25 0 -16 6 -25 15 -25 8 0
15 -7 15 -15 0 -9 9 -15 25 -15 16 0 25 -6 25 -15 0 -11 11 -15 40 -15 22 0
40 -4 40 -10 0 -6 33 -10 80 -10 46 0 80 -4 80 -10 0 -5 18 -13 40 -16 34 -6
40 -10 40 -30 0 -15 6 -24 15 -24 12 0 15 -15 15 -75 l0 -75 50 0 50 0 0 60
c0 47 3 60 15 60 8 0 15 7 15 15 0 8 5 15 11 15 14 0 39 25 39 39 0 8 69 11
215 11 184 0 215 -2 215 -15 0 -12 17 -15 95 -15 69 0 95 -3 95 -12 0 -9 4 -8
10 2 6 10 10 11 10 3 0 -9 18 -13 55 -13 30 0 55 5 55 10 0 6 7 10 15 10 8 0
15 7 15 15 0 9 9 15 25 15 16 0 25 6 25 15 0 8 5 15 11 15 19 0 39 28 39 54 0
22 4 26 30 26 17 0 30 5 30 10 0 6 11 10 25 10 14 0 25 -4 25 -10 0 -6 38 -10
95 -10 l95 0 0 40 c0 22 5 40 10 40 6 0 10 11 10 25 0 16 6 25 15 25 8 0 15 7
15 15 0 8 7 15 15 15 11 0 15 11 15 36 0 35 18 64 39 64 6 0 11 7 11 15 0 12
13 15 55 15 42 0 55 3 55 15 0 11 11 15 36 15 35 0 64 18 64 39 0 6 7 11 15
11 8 0 15 7 15 15 0 9 9 15 25 15 14 0 25 5 25 10 0 6 7 10 15 10 8 0 15 7 15
15 0 11 11 15 40 15 29 0 40 4 40 15 0 8 7 15 15 15 8 0 15 5 15 10 0 6 18 10
40 10 29 0 40 4 40 15 0 9 9 15 25 15 16 0 25 6 25 15 0 8 6 15 14 15 17 0 36
51 36 96 0 24 5 34 15 34 8 0 15 7 15 15 0 12 16 15 80 15 47 0 80 4 80 10 0
6 28 10 65 10 59 0 84 11 53 23 -7 3 -1 6 15 6 28 1 40 31 12 31 -8 0 -15 5
-15 10 0 6 7 10 15 10 10 0 15 10 15 30 0 24 4 30 21 30 22 0 49 22 49 39 0 6
9 11 20 11 11 0 20 7 20 15 0 12 15 15 76 15 87 0 104 10 104 64 0 25 4 36 15
36 8 0 15 7 15 15 0 8 7 15 15 15 8 0 15 7 15 15 0 11 11 15 40 15 22 0 40 5
40 10 0 6 18 10 40 10 29 0 40 4 40 15 0 11 12 15 50 15 38 0 50 4 50 15 0 9
10 15 26 15 39 0 54 22 54 79 0 39 4 51 15 51 8 0 15 7 15 15 0 8 7 15 15 15
8 0 15 5 15 10 0 6 33 10 80 10 64 0 80 3 80 15 0 9 9 15 25 15 23 0 25 4 25
40 0 29 4 40 15 40 8 0 15 5 15 11 0 21 29 39 64 39 25 0 36 4 36 15 0 8 7 15
15 15 8 0 15 6 15 14 0 13 14 16 148 33 27 3 42 10 42 19 0 8 5 14 10 14 6 0
10 104 10 291 0 238 -3 293 -14 305 -8 8 -19 14 -25 14 -6 0 -11 18 -11 40 0
29 -4 40 -15 40 -12 0 -15 14 -15 70 0 40 -4 70 -10 70 -5 0 -10 -7 -10 -15 0
-10 -10 -15 -30 -15 -28 0 -30 -2 -30 -40 0 -22 -4 -40 -10 -40 -5 0 -10 -11
-10 -25 0 -26 -15 -34 -23 -12 -3 6 -6 0 -6 -15 -1 -27 -3 -28 -56 -28 -42 0
-55 3 -55 15 0 8 -4 15 -10 15 -6 0 -10 28 -10 65 0 51 -3 65 -15 65 -13 0
-15 35 -15 255 0 220 -2 255 -15 255 -13 0 -15 98 -15 825 0 727 2 825 15 825
8 0 15 7 15 15 0 8 5 15 11 15 21 0 39 29 39 64 0 20 -4 36 -10 36 -5 0 -10 7
-10 15 0 8 -7 15 -15 15 -9 0 -15 9 -15 25 0 16 -6 25 -15 25 -13 0 -15 30
-17 203 0 111 -1 208 -1 215 1 6 -3 12 -8 12 -5 0 -9 54 -9 120 0 73 4 120 10
120 6 0 10 68 10 185 0 127 -3 185 -11 185 -8 0 -9 33 -5 108 4 59 9 149 12
200 4 71 9 92 20 92 9 0 14 11 14 30 0 28 2 30 40 30 l40 0 0 50 c0 38 -4 50
-15 50 -8 0 -15 7 -15 15 0 11 -11 15 -40 15 -29 0 -40 4 -40 15 0 11 -12 15
-50 15 -27 0 -50 5 -50 10 0 6 -65 10 -175 10 -149 0 -175 2 -175 15 0 8 -7
15 -15 15 -12 0 -15 13 -15 55 0 52 -1 55 -25 55 -14 0 -25 5 -25 10 0 6 -18
10 -40 10 -29 0 -40 4 -40 15 0 13 -39 15 -295 15 -256 0 -295 2 -295 15 0 11
-12 15 -50 15 -27 0 -50 5 -50 10 0 6 -18 10 -40 10 -29 0 -40 4 -40 15 0 11
-11 15 -40 15 -29 0 -40 4 -40 15 0 8 -7 15 -15 15 -8 0 -15 5 -15 10 0 6 -7
10 -15 10 -8 0 -15 7 -15 15 0 11 -12 15 -50 15 -38 0 -50 4 -50 15 0 10 -10
15 -30 15 -16 0 -30 5 -30 10 0 6 -11 10 -25 10 -16 0 -25 6 -25 15 0 13 -23
15 -145 15 -122 0 -145 2 -145 15 0 12 -13 15 -55 15 -52 0 -55 1 -55 25 0 16
-6 25 -15 25 -12 0 -15 13 -15 55 0 52 -1 55 -25 55 -14 0 -25 5 -25 10 0 6
-65 10 -175 10 -149 0 -175 2 -175 15 0 11 -12 15 -50 15 -38 0 -50 4 -50 15
0 11 -11 15 -40 15 -36 0 -40 3 -40 25 0 16 -6 25 -15 25 -11 0 -15 11 -15 40
0 29 -4 40 -15 40 -12 0 -15 13 -15 55 0 30 -4 55 -10 55 -6 0 -10 102 -10
285 l0 285 -510 0 -510 0 0 -100z m320 -1275 c0 -20 -5 -25 -25 -25 -16 0 -25
6 -25 15 0 8 7 15 15 15 8 0 15 5 15 10 0 6 5 10 10 10 6 0 10 -11 10 -25z
m80 -545 c0 -6 38 -10 95 -10 78 0 95 -3 95 -15 0 -8 7 -15 15 -15 9 0 15 -9
15 -25 0 -14 5 -25 10 -25 6 0 10 -18 10 -40 0 -29 4 -40 15 -40 8 0 15 -7 15
-15 0 -12 16 -15 80 -15 64 0 80 -3 80 -15 0 -12 16 -15 80 -15 47 0 80 -4 80
-10 0 -5 7 -10 15 -10 8 0 15 -7 15 -15 0 -8 5 -15 10 -15 6 0 10 -65 10 -175
l0 -175 -25 0 c-14 0 -25 -4 -25 -10 0 -6 -28 -10 -65 -10 -37 0 -65 4 -65 10
0 6 -13 10 -30 10 -20 0 -30 5 -30 15 0 11 -11 15 -40 15 -29 0 -40 4 -40 15
0 9 -9 15 -25 15 -22 0 -25 4 -25 40 0 22 -5 40 -11 40 -6 0 -17 6 -25 14 -8
8 -14 19 -14 25 0 7 -30 11 -80 11 -64 0 -80 3 -80 15 0 12 -14 15 -70 15 -40
0 -70 4 -70 10 0 6 -18 10 -40 10 -29 0 -40 4 -40 15 0 8 -4 15 -10 15 -5 0
-10 25 -10 55 0 42 -3 55 -15 55 -9 0 -15 9 -15 25 0 16 -6 25 -15 25 -12 0
-15 16 -15 80 0 64 3 80 15 80 8 0 15 7 15 15 0 8 7 15 15 15 8 0 15 5 15 10
0 6 37 10 90 10 53 0 90 -4 90 -10z m1070 -1735 c0 -8 7 -15 15 -15 12 0 15
-17 15 -90 0 -53 4 -90 10 -90 6 0 10 -65 10 -175 0 -110 -4 -175 -10 -175 -5
0 -10 -11 -10 -25 0 -16 -6 -25 -15 -25 -8 0 -15 -7 -15 -15 0 -8 -7 -15 -15
-15 -8 0 -15 -7 -15 -15 0 -9 -9 -15 -25 -15 -14 0 -25 -4 -25 -10 0 -5 -11
-10 -25 -10 -16 0 -25 -6 -25 -15 0 -10 -10 -15 -30 -15 -16 0 -30 -5 -30 -11
0 -14 -25 -39 -39 -39 -6 0 -11 -7 -11 -15 0 -12 -14 -15 -65 -15 -51 0 -65 3
-65 15 0 8 -7 15 -15 15 -8 0 -15 5 -15 10 0 6 -7 10 -15 10 -11 0 -15 11 -15
40 0 22 -4 40 -10 40 -5 0 -10 9 -10 20 0 11 -7 20 -15 20 -8 0 -15 9 -15 20
0 11 -7 20 -15 20 -12 0 -15 13 -15 55 0 42 3 55 15 55 8 0 15 7 15 15 0 8 7
15 15 15 8 0 15 9 15 20 0 11 5 20 10 20 6 0 10 35 10 85 0 81 14 116 23 58 2
-16 5 2 6 40 1 52 4 67 16 67 11 0 15 11 15 40 0 22 5 40 10 40 6 0 10 7 10
15 0 8 7 15 15 15 8 0 15 5 15 10 0 6 18 10 40 10 29 0 40 4 40 15 0 13 20 15
120 15 100 0 120 -2 120 -15z m-3004 -909 c16 -16 19 -86 4 -86 -5 0 -10 -9
-10 -20 0 -11 -7 -20 -15 -20 -12 0 -15 -13 -15 -60 0 -47 -3 -60 -15 -60 -12
0 -15 -13 -15 -55 0 -30 -4 -55 -10 -55 -5 0 -10 7 -10 15 0 8 -7 15 -15 15
-8 0 -15 5 -15 10 0 6 -7 10 -15 10 -13 0 -15 23 -15 150 0 127 2 150 15 150
8 0 15 5 15 10 0 16 99 12 116 -4z m2924 -181 c0 -8 7 -15 15 -15 8 0 15 -7
15 -15 0 -8 5 -15 10 -15 6 0 10 -4 10 -10 0 -5 -11 -10 -25 -10 -16 0 -25 -6
-25 -15 0 -8 -7 -15 -15 -15 -8 0 -15 7 -15 15 0 11 -12 15 -45 15 -25 0 -45
5 -45 10 0 6 9 10 20 10 11 0 20 7 20 15 0 9 9 15 25 15 16 0 25 6 25 15 0 8
7 15 15 15 8 0 15 -7 15 -15z m-1920 -470 l0 -55 -65 0 c-37 0 -65 -4 -65 -10
0 -5 -25 -10 -55 -10 -30 0 -55 5 -55 10 0 6 -7 10 -15 10 -8 0 -15 7 -15 15
0 8 -4 15 -10 15 -15 0 -12 19 4 36 8 8 19 14 25 14 6 0 11 7 11 15 0 13 20
15 120 15 l120 0 0 -55z m2130 -490 c0 -11 11 -15 40 -15 36 0 40 -2 40 -25 0
-16 6 -25 16 -25 13 0 15 -19 12 -147 -2 -106 -6 -148 -15 -151 -9 -2 -13 -28
-13 -83 0 -46 -4 -79 -10 -79 -5 0 -10 -22 -10 -50 0 -38 -4 -50 -15 -50 -8 0
-15 -7 -15 -15 0 -11 -11 -15 -40 -15 -29 0 -40 -4 -40 -15 0 -13 -29 -15
-200 -15 l-200 0 0 30 c0 20 -5 30 -15 30 -12 0 -15 14 -15 70 0 40 -4 70 -10
70 -6 0 -10 27 -10 60 0 33 4 60 10 60 6 0 10 14 10 30 0 20 5 30 15 30 8 0
15 5 15 10 0 6 11 10 25 10 16 0 25 6 25 15 0 10 10 15 30 15 30 0 30 1 30 55
0 30 5 55 10 55 6 0 10 11 10 25 0 16 6 25 15 25 8 0 15 7 15 15 0 12 14 15
65 15 37 0 65 4 65 10 0 6 14 10 30 10 20 0 30 5 30 15 0 11 11 15 40 15 29 0
40 4 40 15 0 8 5 15 10 15 6 0 10 -7 10 -15z m-2720 -240 c0 -11 11 -15 40
-15 29 0 40 -4 40 -15 0 -12 16 -15 80 -15 47 0 80 -4 80 -10 0 -5 7 -10 15
-10 8 0 15 -7 15 -15 0 -8 7 -15 15 -15 8 0 15 -5 15 -11 0 -19 28 -39 54 -39
16 0 26 -6 26 -15 0 -8 5 -15 10 -15 6 0 10 -7 10 -15 0 -10 10 -15 30 -15 17
0 30 -4 30 -10 0 -5 11 -10 25 -10 16 0 25 -6 25 -15 0 -12 14 -15 65 -15 51
0 65 -3 65 -15 0 -8 7 -15 15 -15 12 0 15 -14 15 -65 0 -51 3 -65 15 -65 13 0
15 -32 15 -225 0 -193 -2 -225 -15 -225 -10 0 -15 -10 -15 -30 0 -16 -5 -30
-11 -30 -14 0 -39 -25 -39 -39 0 -6 -7 -11 -15 -11 -8 0 -15 -7 -15 -15 0 -9
-9 -15 -25 -15 -14 0 -25 -4 -25 -10 0 -5 -13 -10 -30 -10 -20 0 -30 -5 -30
-15 0 -8 -4 -15 -10 -15 -5 0 -10 -7 -10 -15 0 -13 -29 -15 -200 -15 l-200 0
0 190 c0 162 -2 190 -15 190 -8 0 -15 5 -15 10 0 6 -23 10 -51 10 -31 0 -56 6
-65 15 -9 8 -28 15 -43 15 -36 0 -51 41 -51 138 0 57 -3 72 -15 72 -12 0 -15
17 -15 95 0 78 -3 95 -15 95 -11 0 -15 11 -15 40 0 22 -4 40 -10 40 -5 0 -10
11 -10 25 0 14 5 25 10 25 6 0 10 14 10 30 0 20 5 30 15 30 8 0 15 5 15 10 0
6 7 10 15 10 8 0 15 7 15 15 0 8 5 15 10 15 6 0 10 7 10 15 0 12 16 15 80 15
64 0 80 -3 80 -15z m2720 -670 c0 -11 11 -15 40 -15 36 0 40 -2 40 -25 0 -16
6 -25 15 -25 12 0 15 -14 15 -65 0 -51 -3 -65 -15 -65 -12 0 -15 -17 -15 -95
0 -57 -4 -95 -10 -95 -5 0 -10 -7 -10 -15 0 -8 -7 -15 -15 -15 -8 0 -15 -4
-15 -10 0 -6 -33 -10 -80 -10 -64 0 -80 -3 -80 -15 0 -12 -14 -15 -65 -15 -51
0 -65 3 -65 15 0 10 -10 15 -30 15 -25 0 -30 4 -30 25 0 14 -4 25 -10 25 -6 0
-10 28 -10 65 0 37 4 65 10 65 6 0 10 14 10 30 0 20 5 30 15 30 8 0 15 5 15
10 0 6 7 10 15 10 10 0 15 10 15 30 0 17 5 30 10 30 6 0 10 11 10 25 0 21 5
25 30 25 17 0 30 5 30 11 0 24 30 39 79 39 28 0 51 4 51 9 0 8 16 16 43 20 4
0 7 -6 7 -14z"/>
<path d="M2650 7900 c0 -5 14 -10 30 -10 17 0 30 5 30 10 0 6 -13 10 -30 10
-16 0 -30 -4 -30 -10z"/>
<path d="M1280 3305 c0 -12 13 -15 60 -15 47 0 60 3 60 15 0 12 -13 15 -60 15
-47 0 -60 -3 -60 -15z"/>
</g>
</svg>
